# xmcd
# Track frame offsets:
# 150
# 11445
# 26422
# 41097
# 53247
# 67245
# 81542
# 93942
# 106562
# 120780
# 134010
# 148557
# 160197
# 173450
# 188022
# 199755
#
# Disc length: 2831 seconds
# Revision: 0
# Processed by: cddbd v1.5.1PL2 Copyright (c) Steve Scherf et al.
# Submitted via: VisiTrax 2.9.10.228 - For more info visit www.synapsa.com
#
DISCID=cd0b0d10
DTITLE=Ella Fitzgerald - Ella Fitzgerald - Jazz Forever
DYEAR=2005
DGENRE=Jazz
TTITLE0=L. Hampton - B. Goodman - Sid Robin - Flying Home
TTITLE1=M. Lewis - N. Hamilton - How high the moon
TTITLE2=Fitzgerald - Skye - Goldsmith - I feel in love with a dream
TTITLE3=Austin - McHugh - Mills - When my sugar walks down the street
TTITLE4=Jones - Kahn - The one I love (Belongs to somebody else)
TTITLE5=Duke - Latouche - Fetter - Taking a chance on love
TTITLE6=Duke - Latouche - Cabin in the sky
TTITLE7=Kern - Hammerstein - Can't help lovin' dat man
TTITLE8=G and I Gershwin - Oh, Lady be good
TTITLE9=D. Ellington - M. David - I'm just a lucky so and so
TTITLE10=A. Roberts - D. Fisher - Into each life some rain must fall
TTITLE11=Gaskill - McHugh - I can't believe that you're in love with me
TTITLE12=Ellington - Webster - I got it bad (and that ain't good)
TTITLE13=W. Best - D. Watson - (I love you) For sentimental reasons
TTITLE14=Kalmar - Three little words
TTITLE15=Lawrence - Howel - Tinturin - Big boy blue
EXTD=
EXTT0=
EXTT1=
EXTT2=
EXTT3=
EXTT4=
EXTT5=
EXTT6=
EXTT7=
EXTT8=
EXTT9=
EXTT10=
EXTT11=
EXTT12=
EXTT13=
EXTT14=
EXTT15=
PLAYORDER=
